<svg width="956" height="767" viewBox="0 0 956 767" fill="none" xmlns="http://www.w3.org/2000/svg">
<path d="M0 103.904C0 86.2313 14.3269 71.9044 32 71.9044H274.612C292.285 71.9044 306.612 57.5775 306.612 39.9044V32C306.612 14.3269 320.939 0 338.612 0L613.274 0L924 0C941.673 0 956 14.3269 956 32L956 630.725C956 648.398 941.673 662.725 924 662.725H632.066C614.393 662.725 600.066 677.051 600.066 694.724V735C600.066 752.673 585.739 767 568.066 767H32C14.3269 767 0 752.673 0 735V103.904Z" fill="#E1E7F4"/>
</svg>
