<svg width="1000" height="767" viewBox="0 0 1000 767" fill="none" xmlns="http://www.w3.org/2000/svg">
<path d="M0 103.904C0 86.2313 14.3269 71.9044 32 71.9044H274.612C292.285 71.9044 306.612 57.5775 306.612 39.9044V32C306.612 14.3269 320.939 0 338.612 0L657.274 0L968 0C985.673 0 1000 14.3269 1000 32L1000 630.725C1000 648.398 985.673 662.725 968 662.725H676.066C658.393 662.725 644.066 677.051 644.066 694.724V735C644.066 752.673 629.739 767 612.066 767H32C14.3269 767 0 752.673 0 735V103.904Z" fill="#E1E7F4"/>
</svg>
