<svg width="32" height="52" viewBox="0 0 32 52" fill="none" xmlns="http://www.w3.org/2000/svg">
<rect y="10" width="32" height="32" rx="8" fill="#F6F7F9"/>
<mask id="mask0_32479_7865" style="mask-type:alpha" maskUnits="userSpaceOnUse" x="6" y="16" width="20" height="20">
<rect x="6" y="16" width="20" height="20" fill="#D9D9D9"/>
</mask>
<g mask="url(#mask0_32479_7865)">
<path d="M16.0007 32.6663C14.1395 32.6663 12.5632 32.0205 11.2715 30.7288C9.97982 29.4372 9.33398 27.8608 9.33398 25.9997C9.33398 24.1386 9.97982 22.5622 11.2715 21.2705C12.5632 19.9788 14.1395 19.333 16.0007 19.333C16.959 19.333 17.8757 19.5309 18.7507 19.9268C19.6257 20.3226 20.3757 20.8886 21.0007 21.6247V20.1663C21.0007 19.9302 21.0805 19.7323 21.2402 19.5726C21.4 19.4129 21.5979 19.333 21.834 19.333C22.0701 19.333 22.268 19.4129 22.4277 19.5726C22.5875 19.7323 22.6673 19.9302 22.6673 20.1663V24.333C22.6673 24.5691 22.5875 24.767 22.4277 24.9268C22.268 25.0865 22.0701 25.1663 21.834 25.1663H17.6673C17.4312 25.1663 17.2333 25.0865 17.0736 24.9268C16.9138 24.767 16.834 24.5691 16.834 24.333C16.834 24.0969 16.9138 23.899 17.0736 23.7393C17.2333 23.5795 17.4312 23.4997 17.6673 23.4997H20.334C19.8895 22.7219 19.2819 22.1108 18.5111 21.6663C17.7402 21.2219 16.9034 20.9997 16.0007 20.9997C14.6118 20.9997 13.4312 21.4858 12.459 22.458C11.4868 23.4302 11.0007 24.6108 11.0007 25.9997C11.0007 27.3886 11.4868 28.5691 12.459 29.5413C13.4312 30.5136 14.6118 30.9997 16.0007 30.9997C16.9451 30.9997 17.8097 30.7601 18.5944 30.2809C19.3791 29.8018 19.9868 29.1594 20.4173 28.3538C20.5284 28.1594 20.6847 28.024 20.8861 27.9476C21.0875 27.8712 21.2923 27.8677 21.5007 27.9372C21.7229 28.0066 21.8826 28.1525 21.9798 28.3747C22.077 28.5969 22.0701 28.8052 21.959 28.9997C21.3895 30.1108 20.577 30.9997 19.5215 31.6663C18.4659 32.333 17.2923 32.6663 16.0007 32.6663Z" fill="#171719"/>
</g>
</svg>
