<svg width="32" height="32" viewBox="0 0 32 32" fill="none" xmlns="http://www.w3.org/2000/svg">
<path d="M8 10C8 8.89543 8.89543 8 10 8H22C23.1046 8 24 8.89543 24 10V22C24 23.1046 23.1046 24 22 24H10C8.89543 24 8 23.1046 8 22V10Z" fill="#2DBDB6"/>
<path d="M19.765 13.2047C20.0661 13.4892 20.0797 13.9638 19.7953 14.265L15.5453 18.765C15.4061 18.9123 15.2133 18.997 15.0107 18.9999C14.8081 19.0028 14.6129 18.9236 14.4697 18.7803L12.2197 16.5303C11.9268 16.2374 11.9268 15.7626 12.2197 15.4697C12.5126 15.1768 12.9874 15.1768 13.2803 15.4697L14.9846 17.174L18.7047 13.235C18.9891 12.9339 19.4638 12.9203 19.765 13.2047Z" fill="white"/>
</svg>
