<svg width="20" height="20" viewBox="0 0 20 20" fill="none" xmlns="http://www.w3.org/2000/svg">
<mask id="mask0_11364_86959" style="mask-type:alpha" maskUnits="userSpaceOnUse" x="0" y="0" width="20" height="20">
<rect width="20" height="20" transform="matrix(1 0 0 -1 0 20)" fill="#D9D9D9"/>
</mask>
<g mask="url(#mask0_11364_86959)">
<path d="M10.0003 9.25016L6.75033 12.5002C6.59755 12.6529 6.4031 12.7293 6.16699 12.7293C5.93088 12.7293 5.73644 12.6529 5.58366 12.5002C5.43088 12.3474 5.35449 12.1529 5.35449 11.9168C5.35449 11.6807 5.43088 11.4863 5.58366 11.3335L9.41699 7.50016C9.50033 7.41683 9.5906 7.3578 9.68783 7.32308C9.78505 7.28836 9.88921 7.271 10.0003 7.271C10.1114 7.271 10.2156 7.28836 10.3128 7.32308C10.41 7.3578 10.5003 7.41683 10.5837 7.50016L14.417 11.3335C14.5698 11.4863 14.6462 11.6807 14.6462 11.9168C14.6462 12.1529 14.5698 12.3474 14.417 12.5002C14.2642 12.6529 14.0698 12.7293 13.8337 12.7293C13.5975 12.7293 13.4031 12.6529 13.2503 12.5002L10.0003 9.25016Z" fill="#2E2F33" fill-opacity="0.88"/>
</g>
</svg>
