<svg width="24" height="25" viewBox="0 0 24 25" fill="none" xmlns="http://www.w3.org/2000/svg">
<mask id="mask0_11364_90985" style="mask-type:alpha" maskUnits="userSpaceOnUse" x="0" y="0" width="24" height="25">
<rect y="0.5" width="24" height="24" fill="#D9D9D9"/>
</mask>
<g mask="url(#mask0_11364_90985)">
<path d="M11.25 15.25V17.5C11.25 17.7125 11.3219 17.8906 11.4658 18.0343C11.6096 18.1781 11.7878 18.25 12.0003 18.25C12.2129 18.25 12.391 18.1781 12.5345 18.0343C12.6782 17.8906 12.75 17.7125 12.75 17.5V15.25H15C15.2125 15.25 15.3906 15.1781 15.5343 15.0343C15.6781 14.8904 15.75 14.7122 15.75 14.4998C15.75 14.2871 15.6781 14.109 15.5343 13.9655C15.3906 13.8218 15.2125 13.75 15 13.75H12.75V11.5C12.75 11.2875 12.6781 11.1094 12.5343 10.9658C12.3904 10.8219 12.2122 10.75 11.9997 10.75C11.7871 10.75 11.609 10.8219 11.4655 10.9658C11.3218 11.1094 11.25 11.2875 11.25 11.5V13.75H9C8.7875 13.75 8.60942 13.8219 8.46575 13.9658C8.32192 14.1096 8.25 14.2878 8.25 14.5003C8.25 14.7129 8.32192 14.891 8.46575 15.0345C8.60942 15.1782 8.7875 15.25 9 15.25H11.25ZM6.30775 22C5.80258 22 5.375 21.825 5.025 21.475C4.675 21.125 4.5 20.6974 4.5 20.1923V4.80775C4.5 4.30258 4.675 3.875 5.025 3.525C5.375 3.175 5.80258 3 6.30775 3H13.502C13.7458 3 13.9782 3.04683 14.1992 3.1405C14.4202 3.234 14.6128 3.36283 14.777 3.527L18.973 7.723C19.1372 7.88717 19.266 8.07975 19.3595 8.30075C19.4532 8.52175 19.5 8.75417 19.5 8.998V20.1923C19.5 20.6974 19.325 21.125 18.975 21.475C18.625 21.825 18.1974 22 17.6923 22H6.30775ZM13.5 8.1V4.5H6.30775C6.23075 4.5 6.16025 4.53208 6.09625 4.59625C6.03208 4.66025 6 4.73075 6 4.80775V20.1923C6 20.2693 6.03208 20.3398 6.09625 20.4038C6.16025 20.4679 6.23075 20.5 6.30775 20.5H17.6923C17.7692 20.5 17.8398 20.4679 17.9038 20.4038C17.9679 20.3398 18 20.2693 18 20.1923V9H14.3997C14.1447 9 13.9311 8.91375 13.7587 8.74125C13.5863 8.56875 13.5 8.355 13.5 8.1Z" fill="#2E2F33" fill-opacity="0.88"/>
</g>
</svg>
