<svg width="56" height="56" viewBox="0 0 56 56" fill="none" xmlns="http://www.w3.org/2000/svg">
<path d="M0 28C0 12.536 12.536 0 28 0C43.464 0 56 12.536 56 28C56 43.464 43.464 56 28 56C12.536 56 0 43.464 0 28Z" fill="#FF1B1B" fill-opacity="0.05"/>
<mask id="mask0_13442_28304" style="mask-type:alpha" maskUnits="userSpaceOnUse" x="16" y="16" width="24" height="24">
<rect x="16" y="16" width="24" height="24" fill="#D9D9D9"/>
</mask>
<g mask="url(#mask0_13442_28304)">
<path d="M28 31C27.575 31 27.2188 30.8563 26.9312 30.5688C26.6437 30.2813 26.5 29.925 26.5 29.5V19C26.5 18.575 26.6437 18.2188 26.9312 17.9312C27.2188 17.6437 27.575 17.5 28 17.5C28.425 17.5 28.7812 17.6437 29.0687 17.9312C29.3563 18.2188 29.5 18.575 29.5 19V29.5C29.5 29.925 29.3563 30.2813 29.0687 30.5688C28.7812 30.8563 28.425 31 28 31ZM28 38.5C27.575 38.5 27.2188 38.3563 26.9312 38.0688C26.6437 37.7812 26.5 37.425 26.5 37C26.5 36.575 26.6437 36.2188 26.9312 35.9313C27.2188 35.6438 27.575 35.5 28 35.5C28.425 35.5 28.7812 35.6438 29.0687 35.9313C29.3563 36.2188 29.5 36.575 29.5 37C29.5 37.425 29.3563 37.7812 29.0687 38.0688C28.7812 38.3563 28.425 38.5 28 38.5Z" fill="#FF1B1B"/>
</g>
</svg>
