<svg width="36" height="36" viewBox="0 0 36 36" fill="none" xmlns="http://www.w3.org/2000/svg">
<path d="M11.25 27C10.6313 27 10.1016 26.7797 9.66094 26.3391C9.22031 25.8984 9 25.3687 9 24.75C9 24.1313 9.22031 23.6016 9.66094 23.1609C10.1016 22.7203 10.6313 22.5 11.25 22.5C11.8688 22.5 12.3984 22.7203 12.8391 23.1609C13.2797 23.6016 13.5 24.1313 13.5 24.75C13.5 25.3687 13.2797 25.8984 12.8391 26.3391C12.3984 26.7797 11.8688 27 11.25 27ZM18 27C17.3813 27 16.8516 26.7797 16.4109 26.3391C15.9703 25.8984 15.75 25.3687 15.75 24.75C15.75 24.1313 15.9703 23.6016 16.4109 23.1609C16.8516 22.7203 17.3813 22.5 18 22.5C18.6187 22.5 19.1484 22.7203 19.5891 23.1609C20.0297 23.6016 20.25 24.1313 20.25 24.75C20.25 25.3687 20.0297 25.8984 19.5891 26.3391C19.1484 26.7797 18.6187 27 18 27ZM24.75 27C24.1313 27 23.6016 26.7797 23.1609 26.3391C22.7203 25.8984 22.5 25.3687 22.5 24.75C22.5 24.1313 22.7203 23.6016 23.1609 23.1609C23.6016 22.7203 24.1313 22.5 24.75 22.5C25.3687 22.5 25.8984 22.7203 26.3391 23.1609C26.7797 23.6016 27 24.1313 27 24.75C27 25.3687 26.7797 25.8984 26.3391 26.3391C25.8984 26.7797 25.3687 27 24.75 27ZM11.25 20.25C10.6313 20.25 10.1016 20.0297 9.66094 19.5891C9.22031 19.1484 9 18.6187 9 18C9 17.3813 9.22031 16.8516 9.66094 16.4109C10.1016 15.9703 10.6313 15.75 11.25 15.75C11.8688 15.75 12.3984 15.9703 12.8391 16.4109C13.2797 16.8516 13.5 17.3813 13.5 18C13.5 18.6187 13.2797 19.1484 12.8391 19.5891C12.3984 20.0297 11.8688 20.25 11.25 20.25ZM18 20.25C17.3813 20.25 16.8516 20.0297 16.4109 19.5891C15.9703 19.1484 15.75 18.6187 15.75 18C15.75 17.3813 15.9703 16.8516 16.4109 16.4109C16.8516 15.9703 17.3813 15.75 18 15.75C18.6187 15.75 19.1484 15.9703 19.5891 16.4109C20.0297 16.8516 20.25 17.3813 20.25 18C20.25 18.6187 20.0297 19.1484 19.5891 19.5891C19.1484 20.0297 18.6187 20.25 18 20.25ZM24.75 20.25C24.1313 20.25 23.6016 20.0297 23.1609 19.5891C22.7203 19.1484 22.5 18.6187 22.5 18C22.5 17.3813 22.7203 16.8516 23.1609 16.4109C23.6016 15.9703 24.1313 15.75 24.75 15.75C25.3687 15.75 25.8984 15.9703 26.3391 16.4109C26.7797 16.8516 27 17.3813 27 18C27 18.6187 26.7797 19.1484 26.3391 19.5891C25.8984 20.0297 25.3687 20.25 24.75 20.25ZM11.25 13.5C10.6313 13.5 10.1016 13.2797 9.66094 12.8391C9.22031 12.3984 9 11.8688 9 11.25C9 10.6313 9.22031 10.1016 9.66094 9.66094C10.1016 9.22031 10.6313 9 11.25 9C11.8688 9 12.3984 9.22031 12.8391 9.66094C13.2797 10.1016 13.5 10.6313 13.5 11.25C13.5 11.8688 13.2797 12.3984 12.8391 12.8391C12.3984 13.2797 11.8688 13.5 11.25 13.5ZM18 13.5C17.3813 13.5 16.8516 13.2797 16.4109 12.8391C15.9703 12.3984 15.75 11.8688 15.75 11.25C15.75 10.6313 15.9703 10.1016 16.4109 9.66094C16.8516 9.22031 17.3813 9 18 9C18.6187 9 19.1484 9.22031 19.5891 9.66094C20.0297 10.1016 20.25 10.6313 20.25 11.25C20.25 11.8688 20.0297 12.3984 19.5891 12.8391C19.1484 13.2797 18.6187 13.5 18 13.5ZM24.75 13.5C24.1313 13.5 23.6016 13.2797 23.1609 12.8391C22.7203 12.3984 22.5 11.8688 22.5 11.25C22.5 10.6313 22.7203 10.1016 23.1609 9.66094C23.6016 9.22031 24.1313 9 24.75 9C25.3687 9 25.8984 9.22031 26.3391 9.66094C26.7797 10.1016 27 10.6313 27 11.25C27 11.8688 26.7797 12.3984 26.3391 12.8391C25.8984 13.2797 25.3687 13.5 24.75 13.5Z" fill="#2E2F33" fill-opacity="0.88"/>
</svg>
