<svg width="16" height="16" viewBox="0 0 16 16" fill="none" xmlns="http://www.w3.org/2000/svg">
<mask id="mask0_32398_11271" style="mask-type:alpha" maskUnits="userSpaceOnUse" x="0" y="0" width="16" height="16">
<rect width="16" height="16" fill="#D9D9D9"/>
</mask>
<g mask="url(#mask0_32398_11271)">
<path d="M7.33301 8.66634H3.99967C3.81079 8.66634 3.65245 8.60245 3.52467 8.47467C3.3969 8.3469 3.33301 8.18856 3.33301 7.99967C3.33301 7.81079 3.3969 7.65245 3.52467 7.52467C3.65245 7.3969 3.81079 7.33301 3.99967 7.33301H7.33301V3.99967C7.33301 3.81079 7.3969 3.65245 7.52467 3.52467C7.65245 3.3969 7.81079 3.33301 7.99967 3.33301C8.18856 3.33301 8.3469 3.3969 8.47467 3.52467C8.60245 3.65245 8.66634 3.81079 8.66634 3.99967V7.33301H11.9997C12.1886 7.33301 12.3469 7.3969 12.4747 7.52467C12.6025 7.65245 12.6663 7.81079 12.6663 7.99967C12.6663 8.18856 12.6025 8.3469 12.4747 8.47467C12.3469 8.60245 12.1886 8.66634 11.9997 8.66634H8.66634V11.9997C8.66634 12.1886 8.60245 12.3469 8.47467 12.4747C8.3469 12.6025 8.18856 12.6663 7.99967 12.6663C7.81079 12.6663 7.65245 12.6025 7.52467 12.4747C7.3969 12.3469 7.33301 12.1886 7.33301 11.9997V8.66634Z" fill="#1C1B1F"/>
</g>
</svg>
