<svg width="16" height="16" viewBox="0 0 16 16" fill="none" xmlns="http://www.w3.org/2000/svg">
<path fill-rule="evenodd" clip-rule="evenodd" d="M7.39235 12.3566L5.7502 10.3566C5.55494 10.1191 5.51412 9.79017 5.64541 9.51205C5.77671 9.23404 6.05657 9.05659 6.3641 9.05639H9.64917C9.9567 9.05659 10.2366 9.23404 10.3679 9.51205C10.4991 9.79017 10.4583 10.1191 10.2631 10.3566L8.62091 12.3566C8.46987 12.5407 8.24432 12.6473 8.0062 12.6473C7.76807 12.6473 7.54252 12.5407 7.39148 12.3566H7.39235ZM6.32359 6.94193C6.01451 6.94203 5.73344 6.76293 5.60282 6.48287C5.47221 6.20272 5.51575 5.87228 5.71446 5.63552L7.39077 3.63706C7.54182 3.4567 7.76504 3.35254 8.0003 3.35254C8.23556 3.35254 8.45878 3.4567 8.60987 3.63706L10.2862 5.63542C10.4849 5.87228 10.5284 6.20272 10.3978 6.48287C10.2672 6.76293 9.98613 6.94203 9.67705 6.94203L6.32359 6.94193Z" fill="#989BA2"/>
</svg>
