<svg width="16" height="16" viewBox="0 0 16 16" fill="none" xmlns="http://www.w3.org/2000/svg">
<mask id="mask0_32287_14571" style="mask-type:alpha" maskUnits="userSpaceOnUse" x="0" y="0" width="16" height="16">
<rect width="16" height="16" fill="#D9D9D9"/>
</mask>
<g mask="url(#mask0_32287_14571)">
<path d="M7.06634 9.19967L5.63301 7.76634C5.51079 7.64412 5.35523 7.58301 5.16634 7.58301C4.97745 7.58301 4.8219 7.64412 4.69967 7.76634C4.57745 7.88856 4.51634 8.04412 4.51634 8.23301C4.51634 8.4219 4.57745 8.57745 4.69967 8.69967L6.59967 10.5997C6.73301 10.733 6.88856 10.7997 7.06634 10.7997C7.24412 10.7997 7.39967 10.733 7.53301 10.5997L11.2997 6.83301C11.4219 6.71079 11.483 6.55523 11.483 6.36634C11.483 6.17745 11.4219 6.0219 11.2997 5.89967C11.1775 5.77745 11.0219 5.71634 10.833 5.71634C10.6441 5.71634 10.4886 5.77745 10.3663 5.89967L7.06634 9.19967ZM7.99967 14.6663C7.07745 14.6663 6.21079 14.4913 5.39967 14.1413C4.58856 13.7913 3.88301 13.3163 3.28301 12.7163C2.68301 12.1163 2.20801 11.4108 1.85801 10.5997C1.50801 9.78856 1.33301 8.9219 1.33301 7.99967C1.33301 7.07745 1.50801 6.21079 1.85801 5.39967C2.20801 4.58856 2.68301 3.88301 3.28301 3.28301C3.88301 2.68301 4.58856 2.20801 5.39967 1.85801C6.21079 1.50801 7.07745 1.33301 7.99967 1.33301C8.9219 1.33301 9.78856 1.50801 10.5997 1.85801C11.4108 2.20801 12.1163 2.68301 12.7163 3.28301C13.3163 3.88301 13.7913 4.58856 14.1413 5.39967C14.4913 6.21079 14.6663 7.07745 14.6663 7.99967C14.6663 8.9219 14.4913 9.78856 14.1413 10.5997C13.7913 11.4108 13.3163 12.1163 12.7163 12.7163C12.1163 13.3163 11.4108 13.7913 10.5997 14.1413C9.78856 14.4913 8.9219 14.6663 7.99967 14.6663ZM7.99967 13.333C9.48856 13.333 10.7497 12.8163 11.783 11.783C12.8163 10.7497 13.333 9.48856 13.333 7.99967C13.333 6.51079 12.8163 5.24967 11.783 4.21634C10.7497 3.18301 9.48856 2.66634 7.99967 2.66634C6.51079 2.66634 5.24967 3.18301 4.21634 4.21634C3.18301 5.24967 2.66634 6.51079 2.66634 7.99967C2.66634 9.48856 3.18301 10.7497 4.21634 11.783C5.24967 12.8163 6.51079 13.333 7.99967 13.333Z" fill="#1A75FF"/>
</g>
</svg>
