<svg width="36" height="36" viewBox="0 0 36 36" fill="none" xmlns="http://www.w3.org/2000/svg">
<rect width="36" height="36" rx="12" fill="#F4F6F8"/>
<path d="M10.4998 21.333V13.9997C10.4998 13.0663 10.4998 12.5995 10.6815 12.243C10.8413 11.9294 11.0962 11.6745 11.4099 11.5147C11.7664 11.333 12.2331 11.333 13.1665 11.333H22.8332C23.7666 11.333 24.2333 11.333 24.5898 11.5147C24.9034 11.6745 25.1584 11.9294 25.3182 12.243C25.4998 12.5995 25.4998 13.0663 25.4998 13.9997V21.333H21.0521C20.8483 21.333 20.7464 21.333 20.6505 21.356C20.5654 21.3764 20.4842 21.4101 20.4096 21.4558C20.3255 21.5073 20.2534 21.5794 20.1093 21.7235L20.057 21.7758C19.9129 21.9199 19.8408 21.992 19.7567 22.0435C19.6822 22.0892 19.6009 22.1229 19.5159 22.1433C19.42 22.1663 19.318 22.1663 19.1142 22.1663H16.8855C16.6816 22.1663 16.5797 22.1663 16.4838 22.1433C16.3988 22.1229 16.3175 22.0892 16.2429 22.0435C16.1588 21.992 16.0868 21.9199 15.9426 21.7758L15.8904 21.7235C15.7462 21.5794 15.6742 21.5073 15.5901 21.4558C15.5155 21.4101 15.4342 21.3764 15.3492 21.356C15.2533 21.333 15.1514 21.333 14.9476 21.333H10.4998ZM10.4998 21.333C10.0396 21.333 9.6665 21.7061 9.6665 22.1663V22.4441C9.6665 22.9608 9.6665 23.2191 9.72329 23.431C9.87741 24.0062 10.3267 24.4554 10.9018 24.6096C11.1137 24.6663 11.3721 24.6663 11.8887 24.6663H24.1109C24.6276 24.6663 24.8859 24.6663 25.0979 24.6096C25.673 24.4554 26.1223 24.0062 26.2764 23.431C26.3332 23.2191 26.3332 22.9608 26.3332 22.4441C26.3332 22.1858 26.3332 22.0566 26.3048 21.9507C26.2277 21.6631 26.0031 21.4385 25.7155 21.3614C25.6095 21.333 25.4804 21.333 25.2221 21.333H24.6665" stroke="#2E2F33" stroke-opacity="0.88" stroke-width="1.66667" stroke-linecap="round" stroke-linejoin="round"/>
</svg>
