<svg width="17" height="17" viewBox="0 0 17 17" fill="none" xmlns="http://www.w3.org/2000/svg">
<mask id="mask0_13306_11706" style="mask-type:alpha" maskUnits="userSpaceOnUse" x="0" y="0" width="17" height="17">
<rect x="0.390625" y="0.916016" width="16" height="16" fill="#D9D9D9"/>
</mask>
<g mask="url(#mask0_13306_11706)">
<path d="M5.05762 14.916C4.69095 14.916 4.37706 14.7855 4.11595 14.5243C3.85484 14.2632 3.72428 13.9493 3.72428 13.5827V4.91602C3.53539 4.91602 3.37706 4.85213 3.24928 4.72435C3.12151 4.59657 3.05762 4.43824 3.05762 4.24935C3.05762 4.06046 3.12151 3.90213 3.24928 3.77435C3.37706 3.64657 3.53539 3.58268 3.72428 3.58268H6.39095C6.39095 3.39379 6.45484 3.23546 6.58262 3.10768C6.7104 2.9799 6.86873 2.91602 7.05762 2.91602H9.72428C9.91317 2.91602 10.0715 2.9799 10.1993 3.10768C10.3271 3.23546 10.391 3.39379 10.391 3.58268H13.0576C13.2465 3.58268 13.4048 3.64657 13.5326 3.77435C13.6604 3.90213 13.7243 4.06046 13.7243 4.24935C13.7243 4.43824 13.6604 4.59657 13.5326 4.72435C13.4048 4.85213 13.2465 4.91602 13.0576 4.91602V13.5827C13.0576 13.9493 12.9271 14.2632 12.666 14.5243C12.4048 14.7855 12.091 14.916 11.7243 14.916H5.05762ZM11.7243 4.91602H5.05762V13.5827H11.7243V4.91602ZM7.05762 12.2493C7.24651 12.2493 7.40484 12.1855 7.53262 12.0577C7.6604 11.9299 7.72428 11.7716 7.72428 11.5827V6.91602C7.72428 6.72713 7.6604 6.56879 7.53262 6.44102C7.40484 6.31324 7.24651 6.24935 7.05762 6.24935C6.86873 6.24935 6.7104 6.31324 6.58262 6.44102C6.45484 6.56879 6.39095 6.72713 6.39095 6.91602V11.5827C6.39095 11.7716 6.45484 11.9299 6.58262 12.0577C6.7104 12.1855 6.86873 12.2493 7.05762 12.2493ZM9.72428 12.2493C9.91317 12.2493 10.0715 12.1855 10.1993 12.0577C10.3271 11.9299 10.391 11.7716 10.391 11.5827V6.91602C10.391 6.72713 10.3271 6.56879 10.1993 6.44102C10.0715 6.31324 9.91317 6.24935 9.72428 6.24935C9.5354 6.24935 9.37706 6.31324 9.24928 6.44102C9.12151 6.56879 9.05762 6.72713 9.05762 6.91602V11.5827C9.05762 11.7716 9.12151 11.9299 9.24928 12.0577C9.37706 12.1855 9.5354 12.2493 9.72428 12.2493Z" fill="#2E2F33" fill-opacity="0.88"/>
</g>
</svg>
