<svg width="17" height="16" viewBox="0 0 17 16" fill="none" xmlns="http://www.w3.org/2000/svg">
<mask id="mask0_13108_2017" style="mask-type:alpha" maskUnits="userSpaceOnUse" x="0" y="0" width="17" height="16">
<rect x="0.5" width="16" height="16" fill="#D9D9D9"/>
</mask>
<g mask="url(#mask0_13108_2017)">
<path d="M8.50033 10.3837C8.41144 10.3837 8.3281 10.3698 8.25033 10.342C8.17255 10.3142 8.10033 10.267 8.03366 10.2003L5.63366 7.80033C5.50033 7.66699 5.43644 7.51144 5.44199 7.33366C5.44755 7.15588 5.51144 7.00033 5.63366 6.86699C5.76699 6.73366 5.92533 6.66421 6.10866 6.65866C6.29199 6.6531 6.45033 6.71699 6.58366 6.85033L7.83366 8.10033V3.33366C7.83366 3.14477 7.89755 2.98644 8.02533 2.85866C8.1531 2.73088 8.31144 2.66699 8.50033 2.66699C8.68921 2.66699 8.84755 2.73088 8.97533 2.85866C9.1031 2.98644 9.16699 3.14477 9.16699 3.33366V8.10033L10.417 6.85033C10.5503 6.71699 10.7087 6.6531 10.892 6.65866C11.0753 6.66421 11.2337 6.73366 11.367 6.86699C11.4892 7.00033 11.5531 7.15588 11.5587 7.33366C11.5642 7.51144 11.5003 7.66699 11.367 7.80033L8.96699 10.2003C8.90033 10.267 8.8281 10.3142 8.75033 10.342C8.67255 10.3698 8.58921 10.3837 8.50033 10.3837ZM4.50033 13.3337C4.13366 13.3337 3.81977 13.2031 3.55866 12.942C3.29755 12.6809 3.16699 12.367 3.16699 12.0003V10.667C3.16699 10.4781 3.23088 10.3198 3.35866 10.192C3.48644 10.0642 3.64477 10.0003 3.83366 10.0003C4.02255 10.0003 4.18088 10.0642 4.30866 10.192C4.43644 10.3198 4.50033 10.4781 4.50033 10.667V12.0003H12.5003V10.667C12.5003 10.4781 12.5642 10.3198 12.692 10.192C12.8198 10.0642 12.9781 10.0003 13.167 10.0003C13.3559 10.0003 13.5142 10.0642 13.642 10.192C13.7698 10.3198 13.8337 10.4781 13.8337 10.667V12.0003C13.8337 12.367 13.7031 12.6809 13.442 12.942C13.1809 13.2031 12.867 13.3337 12.5003 13.3337H4.50033Z" fill="#2E2F33" fill-opacity="0.88"/>
</g>
</svg>
