<svg width="56" height="56" viewBox="0 0 56 56" fill="none" xmlns="http://www.w3.org/2000/svg">
<path d="M0 28C0 12.536 12.536 0 28 0C43.464 0 56 12.536 56 28C56 43.464 43.464 56 28 56C12.536 56 0 43.464 0 28Z" fill="#EAECEF"/>
<path d="M34 34C34 34 31.75 31 28 31C24.25 31 22 34 22 34M32.5 23.5H32.515M23.5 23.5H23.515M43 28C43 36.2843 36.2843 43 28 43C19.7157 43 13 36.2843 13 28C13 19.7157 19.7157 13 28 13C36.2843 13 43 19.7157 43 28ZM33.25 23.5C33.25 23.9142 32.9142 24.25 32.5 24.25C32.0858 24.25 31.75 23.9142 31.75 23.5C31.75 23.0858 32.0858 22.75 32.5 22.75C32.9142 22.75 33.25 23.0858 33.25 23.5ZM24.25 23.5C24.25 23.9142 23.9142 24.25 23.5 24.25C23.0858 24.25 22.75 23.9142 22.75 23.5C22.75 23.0858 23.0858 22.75 23.5 22.75C23.9142 22.75 24.25 23.0858 24.25 23.5Z" stroke="#FF4242" stroke-width="3" stroke-linecap="round" stroke-linejoin="round"/>
</svg>
