<svg width="36" height="36" viewBox="0 0 36 36" fill="none" xmlns="http://www.w3.org/2000/svg">
<rect width="36" height="36" rx="12" fill="#F4F6F8"/>
<path d="M23.8333 15.5003C23.8333 18.722 21.2217 21.3337 18 21.3337M23.8333 15.5003C23.8333 12.2787 21.2217 9.66699 18 9.66699M23.8333 15.5003H12.1667M18 21.3337C14.7783 21.3337 12.1667 18.722 12.1667 15.5003M18 21.3337C19.4591 19.7363 20.289 17.6633 20.3341 15.5003C20.289 13.3373 19.4591 11.2644 18 9.66699M18 21.3337C16.5409 19.7363 15.7125 17.6633 15.6674 15.5003C15.7125 13.3373 16.5409 11.2644 18 9.66699M18 21.3337V23.0003M12.1667 15.5003C12.1667 12.2787 14.7783 9.66699 18 9.66699M19.6667 24.667C19.6667 25.5875 18.9205 26.3337 18 26.3337C17.0795 26.3337 16.3333 25.5875 16.3333 24.667M19.6667 24.667C19.6667 23.7465 18.9205 23.0003 18 23.0003M19.6667 24.667H25.5M16.3333 24.667C16.3333 23.7465 17.0795 23.0003 18 23.0003M16.3333 24.667H10.5" stroke="#2E2F33" stroke-opacity="0.88" stroke-width="1.66667" stroke-linecap="round" stroke-linejoin="round"/>
</svg>
