<svg width="36" height="36" viewBox="0 0 36 36" fill="none" xmlns="http://www.w3.org/2000/svg">
<rect width="36" height="36" rx="12" fill="#F4F6F8"/>
<path d="M10.5003 21.334V14.0007C10.5003 13.0672 10.5003 12.6005 10.682 12.244C10.8418 11.9304 11.0967 11.6754 11.4103 11.5156C11.7669 11.334 12.2336 11.334 13.167 11.334H22.8337C23.7671 11.334 24.2338 11.334 24.5903 11.5156C24.9039 11.6754 25.1589 11.9304 25.3187 12.244C25.5003 12.6005 25.5003 13.0672 25.5003 14.0007V21.334H21.0526C20.8488 21.334 20.7469 21.334 20.651 21.357C20.5659 21.3774 20.4846 21.4111 20.4101 21.4568C20.326 21.5083 20.2539 21.5804 20.1098 21.7245L20.0575 21.7768C19.9134 21.9209 19.8413 21.993 19.7572 22.0445C19.6827 22.0902 19.6014 22.1239 19.5164 22.1443C19.4204 22.1673 19.3185 22.1673 19.1147 22.1673H16.8859C16.6821 22.1673 16.5802 22.1673 16.4843 22.1443C16.3993 22.1239 16.318 22.0902 16.2434 22.0445C16.1593 21.993 16.0873 21.9209 15.9431 21.7768L15.8908 21.7245C15.7467 21.5804 15.6747 21.5083 15.5906 21.4568C15.516 21.4111 15.4347 21.3774 15.3497 21.357C15.2538 21.334 15.1519 21.334 14.948 21.334H10.5003ZM10.5003 21.334C10.0401 21.334 9.66699 21.7071 9.66699 22.1673V22.4451C9.66699 22.9617 9.66699 23.2201 9.72378 23.432C9.87789 24.0072 10.3271 24.4564 10.9023 24.6105C11.1142 24.6673 11.3726 24.6673 11.8892 24.6673H24.1114C24.6281 24.6673 24.8864 24.6673 25.0984 24.6105C25.6735 24.4564 26.1228 24.0072 26.2769 23.432C26.3337 23.2201 26.3337 22.9617 26.3337 22.4451C26.3337 22.1868 26.3337 22.0576 26.3053 21.9516C26.2282 21.6641 26.0036 21.4394 25.716 21.3624C25.61 21.334 25.4809 21.334 25.2225 21.334H24.667" stroke="#2E2F33" stroke-opacity="0.88" stroke-width="1.66667" stroke-linecap="round" stroke-linejoin="round"/>
</svg>
