<svg width="56" height="56" viewBox="0 0 56 56" fill="none" xmlns="http://www.w3.org/2000/svg">
<path d="M0 28C0 12.536 12.536 0 28 0C43.464 0 56 12.536 56 28C56 43.464 43.464 56 28 56C12.536 56 0 43.464 0 28Z" fill="#EAECEF"/>
<path d="M28 32.5C30.4853 32.5 32.5 30.4853 32.5 28C32.5 25.5147 30.4853 23.5 28 23.5C25.5147 23.5 23.5 25.5147 23.5 28C23.5 30.4853 25.5147 32.5 28 32.5Z" stroke="#FF4242" stroke-width="3" stroke-linecap="round" stroke-linejoin="round"/>
<path d="M38.0909 32.0909C37.9094 32.5022 37.8552 32.9584 37.9354 33.4008C38.0157 33.8432 38.2265 34.2513 38.5409 34.5727L38.6227 34.6545C38.8763 34.9078 39.0775 35.2086 39.2147 35.5397C39.352 35.8708 39.4226 36.2257 39.4226 36.5841C39.4226 36.9425 39.352 37.2974 39.2147 37.6285C39.0775 37.9596 38.8763 38.2603 38.6227 38.5136C38.3694 38.7672 38.0687 38.9684 37.7376 39.1056C37.4065 39.2429 37.0516 39.3135 36.6932 39.3135C36.3348 39.3135 35.9799 39.2429 35.6488 39.1056C35.3177 38.9684 35.0169 38.7672 34.7636 38.5136L34.6818 38.4318C34.3604 38.1175 33.9523 37.9066 33.5099 37.8264C33.0675 37.7462 32.6113 37.8003 32.2 37.9818C31.7967 38.1547 31.4527 38.4417 31.2104 38.8075C30.9681 39.1734 30.8381 39.6021 30.8364 40.0409V40.2727C30.8364 40.996 30.549 41.6897 30.0376 42.2012C29.5261 42.7127 28.8324 43 28.1091 43C27.3858 43 26.6921 42.7127 26.1806 42.2012C25.6692 41.6897 25.3818 40.996 25.3818 40.2727V40.15C25.3713 39.6986 25.2252 39.2609 24.9625 38.8937C24.6999 38.5265 24.3328 38.2468 23.9091 38.0909C23.4978 37.9094 23.0416 37.8552 22.5992 37.9354C22.1568 38.0157 21.7487 38.2265 21.4273 38.5409L21.3455 38.6227C21.0922 38.8763 20.7914 39.0775 20.4603 39.2147C20.1292 39.352 19.7743 39.4226 19.4159 39.4226C19.0575 39.4226 18.7026 39.352 18.3715 39.2147C18.0404 39.0775 17.7397 38.8763 17.4864 38.6227C17.2328 38.3694 17.0316 38.0687 16.8944 37.7376C16.7571 37.4065 16.6865 37.0516 16.6865 36.6932C16.6865 36.3348 16.7571 35.9799 16.8944 35.6488C17.0316 35.3177 17.2328 35.0169 17.4864 34.7636L17.5682 34.6818C17.8826 34.3604 18.0934 33.9523 18.1736 33.5099C18.2539 33.0675 18.1997 32.6113 18.0182 32.2C17.8453 31.7967 17.5583 31.4527 17.1925 31.2104C16.8266 30.9681 16.3979 30.8381 15.9591 30.8364H15.7273C15.004 30.8364 14.3103 30.549 13.7988 30.0376C13.2873 29.5261 13 28.8324 13 28.1091C13 27.3858 13.2873 26.6921 13.7988 26.1806C14.3103 25.6692 15.004 25.3818 15.7273 25.3818H15.85C16.3014 25.3713 16.7391 25.2252 17.1063 24.9625C17.4735 24.6999 17.7532 24.3328 17.9091 23.9091C18.0906 23.4978 18.1448 23.0416 18.0646 22.5992C17.9843 22.1568 17.7735 21.7487 17.4591 21.4273L17.3773 21.3455C17.1237 21.0922 16.9225 20.7914 16.7853 20.4603C16.648 20.1292 16.5774 19.7743 16.5774 19.4159C16.5774 19.0575 16.648 18.7026 16.7853 18.3715C16.9225 18.0404 17.1237 17.7397 17.3773 17.4864C17.6306 17.2328 17.9314 17.0316 18.2624 16.8944C18.5935 16.7571 18.9484 16.6865 19.3068 16.6865C19.6652 16.6865 20.0201 16.7571 20.3512 16.8944C20.6823 17.0316 20.9831 17.2328 21.2364 17.4864L21.3182 17.5682C21.6396 17.8826 22.0477 18.0934 22.4901 18.1736C22.9325 18.2539 23.3887 18.1997 23.8 18.0182H23.9091C24.3124 17.8453 24.6564 17.5583 24.8987 17.1925C25.141 16.8266 25.271 16.3979 25.2727 15.9591V15.7273C25.2727 15.004 25.5601 14.3103 26.0715 13.7988C26.583 13.2873 27.2767 13 28 13C28.7233 13 29.417 13.2873 29.9285 13.7988C30.4399 14.3103 30.7273 15.004 30.7273 15.7273V15.85C30.729 16.2888 30.859 16.7175 31.1013 17.0834C31.3436 17.4492 31.6876 17.7362 32.0909 17.9091C32.5022 18.0906 32.9584 18.1448 33.4008 18.0646C33.8432 17.9843 34.2513 17.7735 34.5727 17.4591L34.6545 17.3773C34.9078 17.1237 35.2086 16.9225 35.5397 16.7853C35.8708 16.648 36.2257 16.5774 36.5841 16.5774C36.9425 16.5774 37.2974 16.648 37.6285 16.7853C37.9596 16.9225 38.2603 17.1237 38.5136 17.3773C38.7672 17.6306 38.9684 17.9314 39.1056 18.2624C39.2429 18.5935 39.3135 18.9484 39.3135 19.3068C39.3135 19.6652 39.2429 20.0201 39.1056 20.3512C38.9684 20.6823 38.7672 20.9831 38.5136 21.2364L38.4318 21.3182C38.1175 21.6396 37.9066 22.0477 37.8264 22.4901C37.7462 22.9325 37.8003 23.3887 37.9818 23.8V23.9091C38.1547 24.3124 38.4417 24.6564 38.8075 24.8987C39.1734 25.141 39.6021 25.271 40.0409 25.2727H40.2727C40.996 25.2727 41.6897 25.5601 42.2012 26.0715C42.7127 26.583 43 27.2767 43 28C43 28.7233 42.7127 29.417 42.2012 29.9285C41.6897 30.4399 40.996 30.7273 40.2727 30.7273H40.15C39.7112 30.729 39.2825 30.859 38.9166 31.1013C38.5508 31.3436 38.2638 31.6876 38.0909 32.0909Z" stroke="#FF4242" stroke-width="3" stroke-linecap="round" stroke-linejoin="round"/>
</svg>
