<svg width="32" height="32" viewBox="0 0 32 32" fill="none" xmlns="http://www.w3.org/2000/svg">
<rect width="32" height="32" rx="16" fill="#EAECEF"/>
<mask id="mask0_11364_86492" style="mask-type:alpha" maskUnits="userSpaceOnUse" x="6" y="6" width="20" height="20">
<rect width="20" height="20" transform="matrix(1 0 0 -1 6 26)" fill="#D9D9D9"/>
</mask>
<g mask="url(#mask0_11364_86492)">
<path d="M16.0001 16.7501L12.7501 13.5001C12.5973 13.3473 12.4029 13.2709 12.1667 13.2709C11.9306 13.2709 11.7362 13.3473 11.5834 13.5001C11.4306 13.6529 11.3542 13.8473 11.3542 14.0834C11.3542 14.3195 11.4306 14.514 11.5834 14.6667L15.4167 18.5001C15.5001 18.5834 15.5904 18.6424 15.6876 18.6772C15.7848 18.7119 15.889 18.7292 16.0001 18.7292C16.1112 18.7292 16.2154 18.7119 16.3126 18.6772C16.4098 18.6424 16.5001 18.5834 16.5834 18.5001L20.4167 14.6667C20.5695 14.514 20.6459 14.3195 20.6459 14.0834C20.6459 13.8473 20.5695 13.6529 20.4167 13.5001C20.264 13.3473 20.0695 13.2709 19.8334 13.2709C19.5973 13.2709 19.4029 13.3473 19.2501 13.5001L16.0001 16.7501Z" fill="#2E2F33" fill-opacity="0.88"/>
</g>
</svg>
