<svg width="36" height="36" viewBox="0 0 36 36" fill="none" xmlns="http://www.w3.org/2000/svg">
<rect width="36" height="36" rx="12" fill="#F4F6F8"/>
<path d="M11.3332 19.6663L12.6454 24.9152C12.6823 25.0628 12.7007 25.1366 12.7226 25.201C12.9358 25.8306 13.5028 26.2733 14.1653 26.3275C14.2331 26.333 14.3092 26.333 14.4613 26.333C14.6519 26.333 14.7471 26.333 14.8274 26.3252C15.6207 26.2483 16.2484 25.6205 16.3254 24.8272C16.3332 24.747 16.3332 24.6517 16.3332 24.4612V12.583M23.4165 19.2497C25.0273 19.2497 26.3332 17.9438 26.3332 16.333C26.3332 14.7222 25.0273 13.4163 23.4165 13.4163M16.5415 12.583H13.4165C11.3454 12.583 9.6665 14.2619 9.6665 16.333C9.66651 18.4041 11.3454 20.083 13.4165 20.083H16.5415C18.0135 20.083 19.8142 20.8721 21.2034 21.6294C22.0139 22.0712 22.4191 22.2921 22.6845 22.2596C22.9306 22.2294 23.1167 22.1189 23.2609 21.9173C23.4165 21.6998 23.4165 21.2647 23.4165 20.3944V12.2716C23.4165 11.4013 23.4165 10.9662 23.2609 10.7488C23.1167 10.5471 22.9306 10.4366 22.6845 10.4065C22.4191 10.374 22.0139 10.5948 21.2034 11.0366C19.8142 11.7939 18.0135 12.583 16.5415 12.583Z" stroke="#2E2F33" stroke-opacity="0.88" stroke-width="1.66667" stroke-linecap="round" stroke-linejoin="round"/>
</svg>
