<svg width="52" height="52" viewBox="0 0 52 52" fill="none" xmlns="http://www.w3.org/2000/svg">
<mask id="mask0_32090_10510" style="mask-type:alpha" maskUnits="userSpaceOnUse" x="0" y="0" width="52" height="52">
<rect width="52" height="52" rx="26" fill="#F4F6F8"/>
</mask>
<g mask="url(#mask0_32090_10510)">
<rect y="1.625" width="52" height="52" rx="26" fill="#F4F6F8"/>
<path d="M25.9996 30.6818C23.7946 30.6818 21.907 29.8967 20.3368 28.3265C18.7666 26.7563 17.9814 24.8687 17.9814 22.6637C17.9814 20.4587 18.7666 18.5711 20.3368 17.0008C21.907 15.4306 23.7946 14.6455 25.9996 14.6455C28.2046 14.6455 30.0922 15.4306 31.6624 17.0008C33.2326 18.5711 34.0178 20.4587 34.0178 22.6637C34.0178 24.8687 33.2326 26.7563 31.6624 28.3265C30.0922 29.8967 28.2046 30.6818 25.9996 30.6818Z" fill="#2E2F33" fill-opacity="0.4"/>
<path d="M6.16528 45.0572V47.0407C6.16528 48.4043 6.65082 49.5716 7.62189 50.5427C8.59296 51.5138 9.7603 51.9993 11.1239 51.9993H40.8758C42.2395 51.9993 43.4068 51.5138 44.3779 50.5427C45.349 49.5716 45.8345 48.4043 45.8345 47.0407V45.0572C45.8345 43.6523 45.4729 42.3609 44.7498 41.1833C44.0266 40.0056 43.0659 39.1068 41.8676 38.487C39.3056 37.206 36.7023 36.2453 34.0577 35.6048C31.4131 34.9643 28.7271 34.644 25.9999 34.644C23.2726 34.644 20.5867 34.9643 17.9421 35.6048C15.2975 36.2453 12.6942 37.206 10.1322 38.487C8.93386 39.1068 7.97312 40.0056 7.24999 41.1833C6.52685 42.3609 6.16528 43.6523 6.16528 45.0572Z" fill="#2E2F33" fill-opacity="0.4"/>
</g>
</svg>
