<svg width="29" height="28" viewBox="0 0 29 28" fill="none" xmlns="http://www.w3.org/2000/svg">
<path d="M6.33325 5.82118C6.33325 4.68815 6.33325 4.12164 6.56949 3.80936C6.7753 3.53731 7.08986 3.36896 7.43038 3.34862C7.82126 3.32528 8.29263 3.63953 9.23536 4.26802L21.5035 12.4468C22.2825 12.9661 22.672 13.2258 22.8077 13.553C22.9263 13.8392 22.9263 14.1607 22.8077 14.4469C22.672 14.7741 22.2825 15.0338 21.5035 15.5531L9.23536 23.7319C8.29263 24.3604 7.82126 24.6746 7.43038 24.6513C7.08986 24.6309 6.7753 24.4626 6.56949 24.1905C6.33325 23.8782 6.33325 23.3117 6.33325 22.1787V5.82118Z" stroke="#F7F7F8" stroke-width="2" stroke-linecap="round" stroke-linejoin="round"/>
</svg>
