<svg width="28" height="28" viewBox="0 0 28 28" fill="none" xmlns="http://www.w3.org/2000/svg">
<path d="M5.83325 5.82142C5.83325 4.6884 5.83325 4.12189 6.06949 3.8096C6.2753 3.53755 6.58986 3.3692 6.93038 3.34887C7.32126 3.32553 7.79263 3.63977 8.73536 4.26826L21.0035 12.447C21.7825 12.9663 22.172 13.226 22.3077 13.5533C22.4263 13.8394 22.4263 14.161 22.3077 14.4471C22.172 14.7744 21.7825 15.034 21.0035 15.5534L8.73536 23.7321C7.79263 24.3606 7.32126 24.6749 6.93038 24.6515C6.58986 24.6312 6.2753 24.4628 6.06949 24.1908C5.83325 23.8785 5.83325 23.312 5.83325 22.179V5.82142Z" stroke="#37383C" stroke-opacity="0.35" stroke-width="2" stroke-linecap="round" stroke-linejoin="round"/>
</svg>
