<svg width="36" height="36" viewBox="0 0 36 36" fill="none" xmlns="http://www.w3.org/2000/svg">
<rect width="36" height="36" rx="12" fill="#F4F6F8"/>
<path d="M19.6675 17.1666H14.6675M16.3341 20.4999H14.6675M21.3341 13.8333H14.6675M24.6668 25.5V14.5C24.6668 13.0999 24.6668 12.3998 24.3943 11.865C24.1547 11.3946 23.7722 11.0122 23.3018 10.7725C22.767 10.5 22.067 10.5 20.6668 10.5H15.3335C13.9334 10.5 13.2333 10.5 12.6985 10.7725C12.2281 11.0122 11.8457 11.3946 11.606 11.865C11.3335 12.3998 11.3335 13.0999 11.3335 14.5V25.5L13.6252 23.8333L15.7085 25.5L18.0002 23.8333L20.2918 25.5L22.3752 23.8333L24.6668 25.5Z" stroke="#2E2F33" stroke-opacity="0.88" stroke-width="1.66667" stroke-linecap="round" stroke-linejoin="round"/>
</svg>
