<svg width="24" height="24" viewBox="0 0 24 24" fill="none" xmlns="http://www.w3.org/2000/svg">
<mask id="mask0_11364_87224" style="mask-type:alpha" maskUnits="userSpaceOnUse" x="0" y="0" width="24" height="24">
<rect width="24" height="24" fill="#D9D9D9"/>
</mask>
<g mask="url(#mask0_11364_87224)">
<path d="M11.9995 19.9995C9.76618 19.9995 7.87451 19.2245 6.32451 17.6745C4.77451 16.1245 3.99951 14.2328 3.99951 11.9995C3.99951 9.76618 4.77451 7.87451 6.32451 6.32451C7.87451 4.77451 9.76618 3.99951 11.9995 3.99951C13.1495 3.99951 14.2495 4.23701 15.2995 4.71201C16.3495 5.18701 17.2495 5.86618 17.9995 6.74951V4.99951C17.9995 4.71618 18.0953 4.47868 18.287 4.28701C18.4787 4.09535 18.7162 3.99951 18.9995 3.99951C19.2828 3.99951 19.5203 4.09535 19.712 4.28701C19.9037 4.47868 19.9995 4.71618 19.9995 4.99951V9.99951C19.9995 10.2828 19.9037 10.5203 19.712 10.712C19.5203 10.9037 19.2828 10.9995 18.9995 10.9995H13.9995C13.7162 10.9995 13.4787 10.9037 13.287 10.712C13.0953 10.5203 12.9995 10.2828 12.9995 9.99951C12.9995 9.71618 13.0953 9.47868 13.287 9.28701C13.4787 9.09535 13.7162 8.99951 13.9995 8.99951H17.1995C16.6662 8.06618 15.937 7.33284 15.012 6.79951C14.087 6.26618 13.0828 5.99951 11.9995 5.99951C10.3328 5.99951 8.91618 6.58284 7.74951 7.74951C6.58284 8.91618 5.99951 10.3328 5.99951 11.9995C5.99951 13.6662 6.58284 15.0828 7.74951 16.2495C8.91618 17.4162 10.3328 17.9995 11.9995 17.9995C13.1328 17.9995 14.1703 17.712 15.112 17.137C16.0537 16.562 16.7828 15.7912 17.2995 14.8245C17.4328 14.5912 17.6203 14.4287 17.862 14.337C18.1037 14.2453 18.3495 14.2412 18.5995 14.3245C18.8662 14.4078 19.0578 14.5828 19.1745 14.8495C19.2912 15.1162 19.2828 15.3662 19.1495 15.5995C18.4662 16.9328 17.4912 17.9995 16.2245 18.7995C14.9578 19.5995 13.5495 19.9995 11.9995 19.9995Z" fill="#2E2F33" fill-opacity="0.88"/>
</g>
</svg>
