<svg width="28" height="28" viewBox="0 0 28 28" fill="none" xmlns="http://www.w3.org/2000/svg">
<mask id="mask0_11364_86468" style="mask-type:alpha" maskUnits="userSpaceOnUse" x="0" y="0" width="28" height="28">
<rect width="28" height="28" fill="#D9D9D9"/>
</mask>
<g mask="url(#mask0_11364_86468)">
<path d="M14 13.9994C13.6694 13.9994 13.3924 13.8876 13.1687 13.664C12.9451 13.4404 12.8333 13.1633 12.8333 12.8328V3.49943C12.8333 3.16887 12.9451 2.89179 13.1687 2.66818C13.3924 2.44457 13.6694 2.33276 14 2.33276C14.3306 2.33276 14.6076 2.44457 14.8313 2.66818C15.0549 2.89179 15.1667 3.16887 15.1667 3.49943V12.8328C15.1667 13.1633 15.0549 13.4404 14.8313 13.664C14.6076 13.8876 14.3306 13.9994 14 13.9994ZM14 24.4994C12.5417 24.4994 11.1757 24.2223 9.90208 23.6682C8.62847 23.114 7.52014 22.3654 6.57708 21.4223C5.63403 20.4793 4.88542 19.371 4.33125 18.0973C3.77708 16.8237 3.5 15.4578 3.5 13.9994C3.5 12.8133 3.69444 11.6612 4.08333 10.5432C4.47222 9.42512 5.03611 8.39943 5.775 7.4661C5.98889 7.19387 6.26111 7.06262 6.59167 7.07235C6.92222 7.08207 7.21389 7.21332 7.46667 7.4661C7.68056 7.67999 7.77778 7.94249 7.75833 8.2536C7.73889 8.56471 7.63194 8.85637 7.4375 9.1286C6.9125 9.8286 6.51389 10.5967 6.24167 11.4328C5.96944 12.2689 5.83333 13.1244 5.83333 13.9994C5.83333 16.2744 6.62569 18.2043 8.21042 19.789C9.79514 21.3737 11.725 22.1661 14 22.1661C16.275 22.1661 18.2049 21.3737 19.7896 19.789C21.3743 18.2043 22.1667 16.2744 22.1667 13.9994C22.1667 13.105 22.0354 12.2348 21.7729 11.389C21.5104 10.5432 21.0972 9.77026 20.5333 9.07026C20.3389 8.81749 20.2319 8.5404 20.2125 8.23901C20.1931 7.93762 20.2903 7.67999 20.5042 7.4661C20.7375 7.23276 21.0194 7.11124 21.35 7.10151C21.6806 7.09179 21.9528 7.21332 22.1667 7.4661C22.925 8.39943 23.5035 9.42026 23.9021 10.5286C24.3007 11.6369 24.5 12.7939 24.5 13.9994C24.5 15.4578 24.2229 16.8237 23.6687 18.0973C23.1146 19.371 22.366 20.4793 21.4229 21.4223C20.4799 22.3654 19.3715 23.114 18.0979 23.6682C16.8243 24.2223 15.4583 24.4994 14 24.4994Z" fill="#2E2F33" fill-opacity="0.88"/>
</g>
</svg>
