<svg width="30" height="30" viewBox="0 0 30 30" fill="none" xmlns="http://www.w3.org/2000/svg">
<mask id="mask0_11364_88528" style="mask-type:alpha" maskUnits="userSpaceOnUse" x="0" y="0" width="30" height="30">
<rect width="30" height="30" fill="#D9D9D9"/>
</mask>
<g mask="url(#mask0_11364_88528)">
<path d="M14.1756 15L17.7481 18.4978C17.916 18.6622 18 18.8715 18 19.1256C18 19.3797 17.916 19.5889 17.7481 19.7534C17.5802 19.9178 17.3664 20 17.1069 20C16.8473 20 16.6336 19.9178 16.4656 19.7534L12.2519 15.6278C12.1603 15.5381 12.0954 15.441 12.0573 15.3363C12.0191 15.2317 12 15.1196 12 15C12 14.8804 12.0191 14.7683 12.0573 14.6637C12.0954 14.559 12.1603 14.4619 12.2519 14.3722L16.4656 10.2466C16.6336 10.0822 16.8473 10 17.1069 10C17.3664 10 17.5802 10.0822 17.7481 10.2466C17.916 10.4111 18 10.6203 18 10.8744C18 11.1286 17.916 11.3378 17.7481 11.5022L14.1756 15Z" fill="#2E2F33" fill-opacity="0.88"/>
</g>
</svg>
