<svg width="30" height="30" viewBox="0 0 30 30" fill="none" xmlns="http://www.w3.org/2000/svg">
<mask id="mask0_11364_87948" style="mask-type:alpha" maskUnits="userSpaceOnUse" x="0" y="0" width="30" height="30">
<rect width="30" height="30" transform="matrix(-1 0 0 1 30 0)" fill="#D9D9D9"/>
</mask>
<g mask="url(#mask0_11364_87948)">
<path d="M15.8244 15L12.2519 18.4978C12.084 18.6622 12 18.8714 12 19.1256C12 19.3797 12.084 19.5889 12.2519 19.7534C12.4198 19.9178 12.6336 20 12.8931 20C13.1527 20 13.3664 19.9178 13.5344 19.7534L17.7481 15.6278C17.8397 15.5381 17.9046 15.441 17.9427 15.3363C17.9809 15.2317 18 15.1196 18 15C18 14.8804 17.9809 14.7683 17.9427 14.6637C17.9046 14.559 17.8397 14.4619 17.7481 14.3722L13.5344 10.2466C13.3664 10.0822 13.1527 10 12.8931 10C12.6336 10 12.4198 10.0822 12.2519 10.2466C12.084 10.4111 12 10.6203 12 10.8744C12 11.1286 12.084 11.3378 12.2519 11.5022L15.8244 15Z" fill="#2E2F33" fill-opacity="0.88"/>
</g>
</svg>
