<svg width="56" height="56" viewBox="0 0 56 56" fill="none" xmlns="http://www.w3.org/2000/svg">
<path d="M0 28C0 12.536 12.536 0 28 0C43.464 0 56 12.536 56 28C56 43.464 43.464 56 28 56C12.536 56 0 43.464 0 28Z" fill="#EAECEF"/>
<path fill-rule="evenodd" clip-rule="evenodd" d="M15.042 28.0008C15.042 20.8444 20.8434 15.043 27.9998 15.043C35.1562 15.043 40.9577 20.8444 40.9577 28.0008C40.9577 35.1572 35.1562 40.9586 27.9998 40.9586C20.8434 40.9586 15.042 35.1572 15.042 28.0008ZM27.9998 12.043C19.1866 12.043 12.042 19.1875 12.042 28.0008C12.042 36.8141 19.1866 43.9586 27.9998 43.9586C36.8131 43.9586 43.9577 36.8141 43.9577 28.0008C43.9577 19.1875 36.8131 12.043 27.9998 12.043ZM27.9582 21.0009C27.1561 21.0009 26.4999 21.6437 26.4999 22.4294V29.5723C26.4999 30.358 27.1561 31.0009 27.9582 31.0009C28.7603 31.0009 29.4165 30.358 29.4165 29.5723V22.4294C29.4165 21.6437 28.7603 21.0009 27.9582 21.0009ZM27.9999 35.4828C28.8283 35.4828 29.4999 34.8112 29.4999 33.9828C29.4999 33.1544 28.8283 32.4828 27.9999 32.4828C27.1715 32.4828 26.4999 33.1544 26.4999 33.9828C26.4999 34.8112 27.1715 35.4828 27.9999 35.4828Z" fill="#FF4242"/>
</svg>
