<svg width="20" height="20" viewBox="0 0 20 20" fill="none" xmlns="http://www.w3.org/2000/svg">
<mask id="mask0_11258_85380" style="mask-type:alpha" maskUnits="userSpaceOnUse" x="0" y="0" width="20" height="20">
<rect width="20" height="20" fill="#D9D9D9"/>
</mask>
<g mask="url(#mask0_11258_85380)">
<path d="M16.4997 18.833L12.9997 15.3747C12.5136 15.5275 12.024 15.642 11.5309 15.7184C11.0379 15.7948 10.5275 15.833 9.99967 15.833C7.90245 15.833 6.0344 15.2531 4.39551 14.0934C2.75662 12.9337 1.56912 11.4302 0.833008 9.58301C1.12467 8.8469 1.49273 8.16287 1.93717 7.53092C2.38162 6.89898 2.88856 6.33301 3.45801 5.83301L1.16634 3.49967L2.33301 2.33301L17.6663 17.6663L16.4997 18.833ZM9.99967 13.333C10.1525 13.333 10.2948 13.3261 10.4268 13.3122C10.5587 13.2983 10.7011 13.2705 10.8538 13.2288L6.35384 8.72884C6.31217 8.88162 6.2844 9.02398 6.27051 9.15593C6.25662 9.28787 6.24967 9.43023 6.24967 9.58301C6.24967 10.6247 6.61426 11.5101 7.34342 12.2393C8.07259 12.9684 8.95801 13.333 9.99967 13.333ZM16.083 13.708L13.4372 11.083C13.5344 10.8469 13.6108 10.6073 13.6663 10.3643C13.7219 10.1212 13.7497 9.86079 13.7497 9.58301C13.7497 8.54134 13.3851 7.65592 12.6559 6.92676C11.9268 6.19759 11.0413 5.83301 9.99967 5.83301C9.7219 5.83301 9.46148 5.86079 9.21842 5.91634C8.97537 5.9719 8.73579 6.05523 8.49967 6.16634L6.37467 4.04134C6.94412 3.80523 7.52745 3.62815 8.12467 3.51009C8.7219 3.39204 9.3469 3.33301 9.99967 3.33301C12.0969 3.33301 13.965 3.91287 15.6038 5.07259C17.2427 6.23231 18.4302 7.73579 19.1663 9.58301C18.8469 10.4025 18.4268 11.1629 17.9059 11.8643C17.3851 12.5656 16.7775 13.1802 16.083 13.708ZM12.2288 9.87468L9.72884 7.37467C10.1177 7.30523 10.4754 7.33648 10.8018 7.46842C11.1281 7.60037 11.4094 7.79134 11.6455 8.04134C11.8816 8.29134 12.0518 8.57954 12.1559 8.90592C12.2601 9.23231 12.2844 9.55523 12.2288 9.87468Z" fill="#171719"/>
</g>
</svg>
