<svg width="20" height="20" viewBox="0 0 20 20" fill="none" xmlns="http://www.w3.org/2000/svg">
<mask id="mask0_11258_85369" style="mask-type:alpha" maskUnits="userSpaceOnUse" x="0" y="0" width="20" height="20">
<rect width="20" height="20" fill="#D9D9D9"/>
</mask>
<g mask="url(#mask0_11258_85369)">
<path d="M9.99967 13.333C11.0413 13.333 11.9268 12.9684 12.6559 12.2393C13.3851 11.5101 13.7497 10.6247 13.7497 9.58301C13.7497 8.54134 13.3851 7.65592 12.6559 6.92676C11.9268 6.19759 11.0413 5.83301 9.99967 5.83301C8.95801 5.83301 8.07259 6.19759 7.34342 6.92676C6.61426 7.65592 6.24967 8.54134 6.24967 9.58301C6.24967 10.6247 6.61426 11.5101 7.34342 12.2393C8.07259 12.9684 8.95801 13.333 9.99967 13.333ZM9.99967 11.833C9.37467 11.833 8.84343 11.6143 8.40593 11.1768C7.96843 10.7393 7.74967 10.208 7.74967 9.58301C7.74967 8.95801 7.96843 8.42676 8.40593 7.98926C8.84343 7.55176 9.37467 7.33301 9.99967 7.33301C10.6247 7.33301 11.1559 7.55176 11.5934 7.98926C12.0309 8.42676 12.2497 8.95801 12.2497 9.58301C12.2497 10.208 12.0309 10.7393 11.5934 11.1768C11.1559 11.6143 10.6247 11.833 9.99967 11.833ZM9.99967 15.833C7.9719 15.833 6.12467 15.267 4.45801 14.1351C2.79134 13.0031 1.58301 11.4858 0.833008 9.58301C1.58301 7.68023 2.79134 6.16287 4.45801 5.03092C6.12467 3.89898 7.9719 3.33301 9.99967 3.33301C12.0275 3.33301 13.8747 3.89898 15.5413 5.03092C17.208 6.16287 18.4163 7.68023 19.1663 9.58301C18.4163 11.4858 17.208 13.0031 15.5413 14.1351C13.8747 15.267 12.0275 15.833 9.99967 15.833Z" fill="#171719"/>
</g>
</svg>
