<svg width="16" height="16" viewBox="0 0 16 16" fill="none" xmlns="http://www.w3.org/2000/svg">
<mask id="mask0_32287_12853" style="mask-type:alpha" maskUnits="userSpaceOnUse" x="0" y="0" width="16" height="16">
<rect width="16" height="16" fill="#D9D9D9"/>
</mask>
<g mask="url(#mask0_32287_12853)">
<path d="M7.99961 10.666C8.83294 10.666 9.54128 10.3743 10.1246 9.79102C10.7079 9.20768 10.9996 8.49935 10.9996 7.66602C10.9996 6.83268 10.7079 6.12435 10.1246 5.54102C9.54128 4.95768 8.83294 4.66602 7.99961 4.66602C7.16628 4.66602 6.45794 4.95768 5.87461 5.54102C5.29128 6.12435 4.99961 6.83268 4.99961 7.66602C4.99961 8.49935 5.29128 9.20768 5.87461 9.79102C6.45794 10.3743 7.16628 10.666 7.99961 10.666ZM7.99961 9.46602C7.49961 9.46602 7.07461 9.29102 6.72461 8.94102C6.37461 8.59102 6.19961 8.16602 6.19961 7.66602C6.19961 7.16602 6.37461 6.74102 6.72461 6.39102C7.07461 6.04102 7.49961 5.86602 7.99961 5.86602C8.49961 5.86602 8.92461 6.04102 9.27461 6.39102C9.62461 6.74102 9.79961 7.16602 9.79961 7.66602C9.79961 8.16602 9.62461 8.59102 9.27461 8.94102C8.92461 9.29102 8.49961 9.46602 7.99961 9.46602ZM7.99961 12.666C6.51072 12.666 5.15239 12.266 3.92461 11.466C2.69683 10.666 1.72739 9.61046 1.01628 8.29935C0.96072 8.19935 0.919054 8.09657 0.891276 7.99102C0.863498 7.88546 0.849609 7.77713 0.849609 7.66602C0.849609 7.5549 0.863498 7.44657 0.891276 7.34102C0.919054 7.23546 0.96072 7.13268 1.01628 7.03268C1.72739 5.72157 2.69683 4.66602 3.92461 3.86602C5.15239 3.06602 6.51072 2.66602 7.99961 2.66602C9.4885 2.66602 10.8468 3.06602 12.0746 3.86602C13.3024 4.66602 14.2718 5.72157 14.9829 7.03268C15.0385 7.13268 15.0802 7.23546 15.1079 7.34102C15.1357 7.44657 15.1496 7.5549 15.1496 7.66602C15.1496 7.77713 15.1357 7.88546 15.1079 7.99102C15.0802 8.09657 15.0385 8.19935 14.9829 8.29935C14.2718 9.61046 13.3024 10.666 12.0746 11.466C10.8468 12.266 9.4885 12.666 7.99961 12.666ZM7.99961 11.3327C9.25517 11.3327 10.4079 11.0021 11.4579 10.341C12.5079 9.6799 13.3107 8.78824 13.8663 7.66602C13.3107 6.54379 12.5079 5.65213 11.4579 4.99102C10.4079 4.3299 9.25517 3.99935 7.99961 3.99935C6.74405 3.99935 5.59128 4.3299 4.54128 4.99102C3.49128 5.65213 2.6885 6.54379 2.13294 7.66602C2.6885 8.78824 3.49128 9.6799 4.54128 10.341C5.59128 11.0021 6.74405 11.3327 7.99961 11.3327Z" fill="#37383C" fill-opacity="0.61"/>
</g>
</svg>
