<svg width="16" height="16" viewBox="0 0 16 16" fill="none" xmlns="http://www.w3.org/2000/svg">
<mask id="mask0_13070_13068" style="mask-type:alpha" maskUnits="userSpaceOnUse" x="0" y="0" width="16" height="16">
<rect width="16" height="16" fill="#D9D9D9"/>
</mask>
<g mask="url(#mask0_13070_13068)">
<path d="M7.99611 11.1996C8.16511 11.1996 8.30794 11.1424 8.42461 11.0281C8.54128 10.9138 8.59961 10.7721 8.59961 10.6031C8.59961 10.4341 8.54244 10.2913 8.42811 10.1746C8.31378 10.0579 8.17211 9.99961 8.00311 9.99961C7.83411 9.99961 7.69128 10.0568 7.57461 10.1711C7.45794 10.2854 7.39961 10.4271 7.39961 10.5961C7.39961 10.7651 7.45678 10.9079 7.57111 11.0246C7.68544 11.1413 7.82711 11.1996 7.99611 11.1996ZM7.99611 8.79961C8.16511 8.79961 8.30794 8.74211 8.42461 8.62711C8.54128 8.51211 8.59961 8.36961 8.59961 8.19961V5.39961C8.59961 5.22961 8.54244 5.08711 8.42811 4.97211C8.31378 4.85711 8.17211 4.79961 8.00311 4.79961C7.83411 4.79961 7.69128 4.85711 7.57461 4.97211C7.45794 5.08711 7.39961 5.22961 7.39961 5.39961V8.19961C7.39961 8.36961 7.45678 8.51211 7.57111 8.62711C7.68544 8.74211 7.82711 8.79961 7.99611 8.79961ZM8.00428 14.3996C7.12339 14.3996 6.29405 14.2329 5.51628 13.8996C4.7385 13.5663 4.05794 13.1079 3.47461 12.5246C2.89128 11.9413 2.43294 11.2609 2.09961 10.4836C1.76628 9.70628 1.59961 8.87572 1.59961 7.99194C1.59961 7.10817 1.76628 6.28017 2.09961 5.50794C2.43294 4.73572 2.89128 4.05794 3.47461 3.47461C4.05794 2.89128 4.73828 2.43294 5.51561 2.09961C6.29294 1.76628 7.1235 1.59961 8.00728 1.59961C8.89105 1.59961 9.71905 1.76628 10.4913 2.09961C11.2635 2.43294 11.9413 2.89128 12.5246 3.47461C13.1079 4.05794 13.5663 4.73694 13.8996 5.51161C14.2329 6.28639 14.3996 7.11417 14.3996 7.99494C14.3996 8.87583 14.2329 9.70516 13.8996 10.4829C13.5663 11.2607 13.1079 11.9413 12.5246 12.5246C11.9413 13.1079 11.2623 13.5663 10.4876 13.8996C9.71283 14.2329 8.88505 14.3996 8.00428 14.3996Z" fill="#FF4242"/>
</g>
</svg>
