<svg width="24" height="24" viewBox="0 0 24 24" fill="none" xmlns="http://www.w3.org/2000/svg">
<mask id="mask0_11364_88173" style="mask-type:alpha" maskUnits="userSpaceOnUse" x="0" y="0" width="24" height="24">
<rect width="24" height="24" fill="#D9D9D9"/>
</mask>
<g mask="url(#mask0_11364_88173)">
<path d="M11.9953 15.3C11.8753 15.3 11.7628 15.2792 11.6578 15.2375C11.5528 15.1958 11.4587 15.1333 11.3753 15.05L6.63383 10.3085C6.44483 10.1195 6.3545 9.90417 6.36283 9.6625C6.37117 9.42083 6.467 9.20833 6.65033 9.025C6.83367 8.84167 7.04617 8.75 7.28783 8.75C7.5295 8.75 7.742 8.84167 7.92533 9.025L12.0003 13.125L16.1003 9.025C16.2837 8.84167 16.4962 8.75417 16.7378 8.7625C16.9795 8.77083 17.192 8.86667 17.3753 9.05C17.5587 9.23333 17.6503 9.44583 17.6503 9.6875C17.6503 9.92917 17.5558 10.144 17.3668 10.332L12.6253 15.05C12.5353 15.1333 12.4378 15.1958 12.3328 15.2375C12.2278 15.2792 12.1153 15.3 11.9953 15.3Z" fill="#171719"/>
</g>
</svg>
