<svg width="20" height="20" viewBox="0 0 20 20" fill="none" xmlns="http://www.w3.org/2000/svg">
<mask id="mask0_32169_9504" style="mask-type:alpha" maskUnits="userSpaceOnUse" x="0" y="0" width="20" height="20">
<rect width="20" height="20" fill="#D9D9D9"/>
</mask>
<g mask="url(#mask0_32169_9504)">
<path d="M10.7507 9.99984L7.50065 6.74984C7.34787 6.59706 7.27148 6.40261 7.27148 6.1665C7.27148 5.93039 7.34787 5.73595 7.50065 5.58317C7.65343 5.43039 7.84787 5.354 8.08398 5.354C8.3201 5.354 8.51454 5.43039 8.66732 5.58317L12.5007 9.4165C12.584 9.49984 12.643 9.59012 12.6777 9.68734C12.7125 9.78456 12.7298 9.88873 12.7298 9.99984C12.7298 10.1109 12.7125 10.2151 12.6777 10.3123C12.643 10.4096 12.584 10.4998 12.5007 10.5832L8.66732 14.4165C8.51454 14.5693 8.3201 14.6457 8.08398 14.6457C7.84787 14.6457 7.65343 14.5693 7.50065 14.4165C7.34787 14.2637 7.27148 14.0693 7.27148 13.8332C7.27148 13.5971 7.34787 13.4026 7.50065 13.2498L10.7507 9.99984Z" fill="#2E2F33" fill-opacity="0.88"/>
</g>
</svg>
