<svg width="32" height="32" viewBox="0 0 32 32" fill="none" xmlns="http://www.w3.org/2000/svg">
<rect width="32" height="32" rx="8" fill="#F6F7F9"/>
<mask id="mask0_32681_9826" style="mask-type:alpha" maskUnits="userSpaceOnUse" x="6" y="6" width="20" height="20">
<rect x="6" y="6" width="20" height="20" fill="#D9D9D9"/>
</mask>
<g mask="url(#mask0_32681_9826)">
<path d="M15.9997 22.6663C14.1386 22.6663 12.5622 22.0205 11.2705 20.7288C9.97884 19.4372 9.33301 17.8608 9.33301 15.9997C9.33301 14.1386 9.97884 12.5622 11.2705 11.2705C12.5622 9.97884 14.1386 9.33301 15.9997 9.33301C16.958 9.33301 17.8747 9.53092 18.7497 9.92676C19.6247 10.3226 20.3747 10.8886 20.9997 11.6247V10.1663C20.9997 9.93023 21.0795 9.73231 21.2393 9.57259C21.399 9.41287 21.5969 9.33301 21.833 9.33301C22.0691 9.33301 22.267 9.41287 22.4268 9.57259C22.5865 9.73231 22.6663 9.93023 22.6663 10.1663V14.333C22.6663 14.5691 22.5865 14.767 22.4268 14.9268C22.267 15.0865 22.0691 15.1663 21.833 15.1663H17.6663C17.4302 15.1663 17.2323 15.0865 17.0726 14.9268C16.9129 14.767 16.833 14.5691 16.833 14.333C16.833 14.0969 16.9129 13.899 17.0726 13.7393C17.2323 13.5795 17.4302 13.4997 17.6663 13.4997H20.333C19.8886 12.7219 19.2809 12.1108 18.5101 11.6663C17.7393 11.2219 16.9025 10.9997 15.9997 10.9997C14.6108 10.9997 13.4302 11.4858 12.458 12.458C11.4858 13.4302 10.9997 14.6108 10.9997 15.9997C10.9997 17.3886 11.4858 18.5691 12.458 19.5413C13.4302 20.5136 14.6108 20.9997 15.9997 20.9997C16.9441 20.9997 17.8087 20.7601 18.5934 20.2809C19.3781 19.8018 19.9858 19.1594 20.4163 18.3538C20.5275 18.1594 20.6837 18.024 20.8851 17.9476C21.0865 17.8712 21.2913 17.8677 21.4997 17.9372C21.7219 18.0066 21.8816 18.1525 21.9788 18.3747C22.0761 18.5969 22.0691 18.8052 21.958 18.9997C21.3886 20.1108 20.5761 20.9997 19.5205 21.6663C18.465 22.333 17.2913 22.6663 15.9997 22.6663Z" fill="#171719"/>
</g>
</svg>
