<svg width="20" height="20" viewBox="0 0 20 20" fill="none" xmlns="http://www.w3.org/2000/svg">
<path d="M7.58471 12.4105L3.81348 16.1817M9.7965 6.42747L8.75591 7.46806C8.67103 7.55294 8.62859 7.59538 8.58023 7.62911C8.53731 7.65904 8.49102 7.68382 8.44231 7.70293C8.38742 7.72445 8.32857 7.73622 8.21086 7.75977L5.76788 8.24836C5.13301 8.37533 4.81558 8.43882 4.66707 8.60619C4.53769 8.752 4.47861 8.94712 4.50538 9.14021C4.53611 9.36185 4.76501 9.59075 5.22282 10.0486L9.94665 14.7724C10.4045 15.2302 10.6334 15.4591 10.855 15.4898C11.0481 15.5166 11.2432 15.4575 11.389 15.3281C11.5564 15.1796 11.6199 14.8622 11.7468 14.2273L12.2354 11.7844C12.259 11.6666 12.2708 11.6078 12.2923 11.5529C12.3114 11.5042 12.3362 11.4579 12.3661 11.415C12.3998 11.3666 12.4423 11.3242 12.5271 11.2393L13.5677 10.1987C13.622 10.1444 13.6491 10.1173 13.679 10.0936C13.7055 10.0726 13.7335 10.0536 13.7629 10.0368C13.796 10.0179 13.8313 10.0028 13.9018 9.97253L15.5647 9.25986C16.0498 9.05194 16.2924 8.94799 16.4026 8.78C16.499 8.63309 16.5334 8.45409 16.4985 8.28191C16.4586 8.08502 16.272 7.89841 15.8988 7.52519L12.47 4.09643C12.0968 3.72321 11.9102 3.53661 11.7133 3.49669C11.5411 3.46179 11.3621 3.49626 11.2152 3.59261C11.0472 3.7028 10.9433 3.94536 10.7354 4.4305L10.0227 6.0934C9.99245 6.16395 9.97733 6.19922 9.95843 6.23229C9.94165 6.26168 9.92265 6.28974 9.9016 6.31624C9.87791 6.34606 9.85077 6.3732 9.7965 6.42747Z" stroke="#0066FF" stroke-width="1.6" stroke-linecap="round" stroke-linejoin="round"/>
</svg>
