<svg width="36" height="36" viewBox="0 0 36 36" fill="none" xmlns="http://www.w3.org/2000/svg">
<rect width="36" height="36" rx="12" fill="#F4F6F8"/>
<path d="M19.6672 17.1666H14.6672M16.3339 20.4999H14.6672M21.3339 13.8333H14.6672M24.6666 25.5V14.5C24.6666 13.0999 24.6666 12.3998 24.3941 11.865C24.1544 11.3946 23.772 11.0122 23.3016 10.7725C22.7668 10.5 22.0667 10.5 20.6666 10.5H15.3333C13.9331 10.5 13.2331 10.5 12.6983 10.7725C12.2279 11.0122 11.8454 11.3946 11.6057 11.865C11.3333 12.3998 11.3333 13.0999 11.3333 14.5V25.5L13.6249 23.8333L15.7083 25.5L17.9999 23.8333L20.2916 25.5L22.3749 23.8333L24.6666 25.5Z" stroke="#2E2F33" stroke-opacity="0.88" stroke-width="1.66667" stroke-linecap="round" stroke-linejoin="round"/>
</svg>
