<svg width="36" height="30" viewBox="0 0 36 30" fill="none" xmlns="http://www.w3.org/2000/svg">
<g clip-path="url(#clip0_32062_17844)">
<path d="M11.4872 17.8871L19.7734 7.69065H15.256C13.227 7.69065 11.8382 8.31018 10.6043 9.75059L6.24179 15.1147V0.375H1.86376C0.836369 0.375 0 1.21137 0 2.24392V29.746H4.37803C5.41058 29.746 6.24179 28.9096 6.24179 27.8771V20.5614L9.78861 24.9136L12.8037 28.6257C13.4129 29.3898 14.2131 29.7408 15.034 29.7408H21.1415L17.192 24.893L11.4872 17.882V17.8871ZM30.6359 24.5574C29.7169 24.5574 28.9631 23.8037 28.9631 22.8795V0.375H24.5851C23.5577 0.375 22.7162 1.21137 22.7162 2.23876V24.0515C22.7162 27.4228 25.0446 29.746 28.4159 29.746H33.2276C34.2602 29.746 35.0965 28.9096 35.0965 27.8771V24.5523H30.6359V24.5574Z" fill="#1C1B1F"/>
<path d="M6.83524 14.3652L6.84557 14.3549C6.84557 14.3549 6.8404 14.3601 6.83008 14.3652H6.83524ZM35.9997 10.204V6.06348L35.6125 6.47134C35.597 6.4765 34.4251 7.67426 31.059 7.67426H15.1421C12.6279 7.67426 11.4404 8.69649 10.5421 9.80649L10.0516 10.4105C10.0516 10.4105 10.0207 10.4467 10.0052 10.4622L6.84557 14.3497C7.99686 13.4824 9.56635 12.9609 11.172 12.9609H31.0538C33.4648 12.9609 35.7829 12.2536 35.9739 10.4467C35.9997 10.2969 35.9946 10.204 35.9946 10.204H35.9997Z" fill="#ED1B23"/>
</g>
<defs>
<clipPath id="clip0_32062_17844">
<rect width="36" height="29.371" fill="white" transform="translate(0 0.375)"/>
</clipPath>
</defs>
</svg>
