<svg width="20" height="20" viewBox="0 0 20 20" fill="none" xmlns="http://www.w3.org/2000/svg">
<mask id="mask0_11364_88371" style="mask-type:alpha" maskUnits="userSpaceOnUse" x="0" y="0" width="20" height="20">
<rect width="20" height="20" fill="#D9D9D9"/>
</mask>
<g mask="url(#mask0_11364_88371)">
<path d="M10.7497 10.0003L7.49967 6.75033C7.3469 6.59755 7.27051 6.4031 7.27051 6.16699C7.27051 5.93088 7.3469 5.73644 7.49967 5.58366C7.65245 5.43088 7.8469 5.35449 8.08301 5.35449C8.31912 5.35449 8.51356 5.43088 8.66634 5.58366L12.4997 9.41699C12.583 9.50033 12.642 9.5906 12.6768 9.68783C12.7115 9.78505 12.7288 9.88921 12.7288 10.0003C12.7288 10.1114 12.7115 10.2156 12.6768 10.3128C12.642 10.41 12.583 10.5003 12.4997 10.5837L8.66634 14.417C8.51356 14.5698 8.31912 14.6462 8.08301 14.6462C7.8469 14.6462 7.65245 14.5698 7.49967 14.417C7.3469 14.2642 7.27051 14.0698 7.27051 13.8337C7.27051 13.5975 7.3469 13.4031 7.49967 13.2503L10.7497 10.0003Z" fill="#2E2F33" fill-opacity="0.88"/>
</g>
</svg>
