<svg width="16" height="16" viewBox="0 0 16 16" fill="none" xmlns="http://www.w3.org/2000/svg">
<mask id="mask0_11364_87912" style="mask-type:alpha" maskUnits="userSpaceOnUse" x="0" y="0" width="16" height="16">
<rect width="16" height="16" fill="#D9D9D9"/>
</mask>
<g mask="url(#mask0_11364_87912)">
<path d="M4.66634 8.99967C4.94412 8.99967 5.18023 8.90245 5.37467 8.70801C5.56912 8.51356 5.66634 8.27745 5.66634 7.99967C5.66634 7.7219 5.56912 7.48579 5.37467 7.29134C5.18023 7.0969 4.94412 6.99967 4.66634 6.99967C4.38856 6.99967 4.15245 7.0969 3.95801 7.29134C3.76356 7.48579 3.66634 7.7219 3.66634 7.99967C3.66634 8.27745 3.76356 8.51356 3.95801 8.70801C4.15245 8.90245 4.38856 8.99967 4.66634 8.99967ZM7.99967 8.99967C8.27745 8.99967 8.51356 8.90245 8.70801 8.70801C8.90245 8.51356 8.99967 8.27745 8.99967 7.99967C8.99967 7.7219 8.90245 7.48579 8.70801 7.29134C8.51356 7.0969 8.27745 6.99967 7.99967 6.99967C7.7219 6.99967 7.48579 7.0969 7.29134 7.29134C7.0969 7.48579 6.99967 7.7219 6.99967 7.99967C6.99967 8.27745 7.0969 8.51356 7.29134 8.70801C7.48579 8.90245 7.7219 8.99967 7.99967 8.99967ZM11.333 8.99967C11.6108 8.99967 11.8469 8.90245 12.0413 8.70801C12.2358 8.51356 12.333 8.27745 12.333 7.99967C12.333 7.7219 12.2358 7.48579 12.0413 7.29134C11.8469 7.0969 11.6108 6.99967 11.333 6.99967C11.0552 6.99967 10.8191 7.0969 10.6247 7.29134C10.4302 7.48579 10.333 7.7219 10.333 7.99967C10.333 8.27745 10.4302 8.51356 10.6247 8.70801C10.8191 8.90245 11.0552 8.99967 11.333 8.99967ZM7.99967 14.6663C7.07745 14.6663 6.21079 14.4913 5.39967 14.1413C4.58856 13.7913 3.88301 13.3163 3.28301 12.7163C2.68301 12.1163 2.20801 11.4108 1.85801 10.5997C1.50801 9.78856 1.33301 8.9219 1.33301 7.99967C1.33301 7.07745 1.50801 6.21079 1.85801 5.39967C2.20801 4.58856 2.68301 3.88301 3.28301 3.28301C3.88301 2.68301 4.58856 2.20801 5.39967 1.85801C6.21079 1.50801 7.07745 1.33301 7.99967 1.33301C8.9219 1.33301 9.78856 1.50801 10.5997 1.85801C11.4108 2.20801 12.1163 2.68301 12.7163 3.28301C13.3163 3.88301 13.7913 4.58856 14.1413 5.39967C14.4913 6.21079 14.6663 7.07745 14.6663 7.99967C14.6663 8.9219 14.4913 9.78856 14.1413 10.5997C13.7913 11.4108 13.3163 12.1163 12.7163 12.7163C12.1163 13.3163 11.4108 13.7913 10.5997 14.1413C9.78856 14.4913 8.9219 14.6663 7.99967 14.6663ZM7.99967 13.333C9.48856 13.333 10.7497 12.8163 11.783 11.783C12.8163 10.7497 13.333 9.48856 13.333 7.99967C13.333 6.51079 12.8163 5.24967 11.783 4.21634C10.7497 3.18301 9.48856 2.66634 7.99967 2.66634C6.51079 2.66634 5.24967 3.18301 4.21634 4.21634C3.18301 5.24967 2.66634 6.51079 2.66634 7.99967C2.66634 9.48856 3.18301 10.7497 4.21634 11.783C5.24967 12.8163 6.51079 13.333 7.99967 13.333Z" fill="#FF9200"/>
</g>
</svg>
