<svg width="704" height="697" viewBox="0 0 704 697" fill="none" xmlns="http://www.w3.org/2000/svg">
<path d="M0 103.904C0 86.2313 14.3269 71.9044 32 71.9044H274.612C292.285 71.9044 306.612 57.5775 306.612 39.9044V32C306.612 14.3269 320.939 0 338.612 0L361.274 0L672 0C689.673 0 704 14.3269 704 32L704 560.725C704 578.398 689.673 592.725 672 592.725H420.066C402.393 592.725 388.066 607.051 388.066 624.724L388.066 665C388.066 682.673 373.739 697 356.066 697H32C14.3269 697 0 682.673 0 665V103.904Z" fill="#E1E7F4"/>
</svg>
