<svg width="28" height="28" viewBox="0 0 28 28" fill="none" xmlns="http://www.w3.org/2000/svg">
<path d="M17.5003 2.3335V3.96683C17.5003 4.62022 17.5003 4.94692 17.3732 5.19649C17.2613 5.41601 17.0828 5.59448 16.8633 5.70634C16.6138 5.8335 16.2871 5.8335 15.6337 5.8335H12.367C11.7136 5.8335 11.3869 5.8335 11.1373 5.70634C10.9178 5.59448 10.7393 5.41601 10.6275 5.19649C10.5003 4.94692 10.5003 4.62022 10.5003 3.96683V2.3335M8.40033 25.6668H19.6003C20.9071 25.6668 21.5605 25.6668 22.0596 25.4125C22.4987 25.1888 22.8556 24.8319 23.0793 24.3928C23.3337 23.8937 23.3337 23.2403 23.3337 21.9335V6.06683C23.3337 4.76004 23.3337 4.10665 23.0793 3.60752C22.8556 3.16847 22.4987 2.81152 22.0596 2.58781C21.5605 2.3335 20.9071 2.3335 19.6003 2.3335H8.40033C7.09354 2.3335 6.44014 2.3335 5.94101 2.58781C5.50197 2.81152 5.14501 3.16847 4.92131 3.60752C4.66699 4.10665 4.66699 4.76004 4.66699 6.06683V21.9335C4.66699 23.2403 4.66699 23.8937 4.92131 24.3928C5.14501 24.8319 5.50197 25.1888 5.94101 25.4125C6.44014 25.6668 7.09354 25.6668 8.40033 25.6668Z" stroke="#171719" stroke-width="2.4" stroke-linecap="round" stroke-linejoin="round"/>
</svg>
